<svg width="57" height="57" viewBox="0 0 57 57" fill="none" xmlns="http://www.w3.org/2000/svg">
<rect width="57" height="57" rx="28.5" fill="#8BAC0F"/>
<path fill-rule="evenodd" clip-rule="evenodd" d="M37.0503 22.8C37.0503 27.522 33.2224 31.35 28.5003 31.35C23.7783 31.35 19.9503 27.522 19.9503 22.8C19.9503 18.078 23.7783 14.25 28.5003 14.25C33.2224 14.25 37.0503 18.078 37.0503 22.8ZM34.2003 22.8C34.2003 25.948 31.6484 28.5 28.5003 28.5C25.3523 28.5 22.8003 25.948 22.8003 22.8C22.8003 19.652 25.3523 17.1 28.5003 17.1C31.6484 17.1 34.2003 19.652 34.2003 22.8Z" fill="#143910"/>
<path d="M28.5003 35.625C19.2744 35.625 11.4136 41.0805 8.41919 48.7237C9.14864 49.448 9.91706 50.1332 10.721 50.7757C12.9508 43.7585 19.9457 38.475 28.5003 38.475C37.055 38.475 44.0499 43.7585 46.2797 50.7757C47.0836 50.1332 47.8521 49.448 48.5815 48.7237C45.5872 41.0805 37.7264 35.625 28.5003 35.625Z" fill="#143910"/>
</svg>
